<?xml version="1.0" standalone="no"?>
<!DOCTYPE svg PUBLIC "-//W3C//DTD SVG 20010904//EN"
 "http://www.w3.org/TR/2001/REC-SVG-20010904/DTD/svg10.dtd">
<svg version="1.0" xmlns="http://www.w3.org/2000/svg"
 width="618.000000pt" height="589.000000pt" viewBox="0 0 618.000000 589.000000"
 preserveAspectRatio="xMidYMid meet">
<metadata>
Created by potrace 1.16, written by Peter Selinger 2001-2019
</metadata>
<g transform="translate(0.000000,589.000000) scale(0.100000,-0.100000)"
fill="#000000" stroke="none">
<path d="M436 2173 c-24 -75 -286 -943 -286 -948 0 -3 48 -4 107 -3 l106 3 14
60 c8 33 18 77 24 98 l10 38 136 -3 137 -3 17 -70 c9 -38 20 -82 23 -97 l6
-28 115 0 c89 0 115 3 115 13 0 11 -184 659 -261 920 l-20 67 -114 0 -113 0
-16 -47z m197 -545 l7 -28 -90 0 c-65 0 -90 3 -90 13 0 6 19 92 42 190 l43
179 41 -164 c22 -89 44 -175 47 -190z"/>
<path d="M1020 1720 l0 -500 110 0 110 0 0 500 0 500 -110 0 -110 0 0 -500z"/>
<path d="M1370 2105 l0 -115 -40 0 -40 0 0 -85 0 -85 39 0 39 0 4 -232 c4
-256 7 -270 68 -321 51 -43 130 -56 244 -41 l46 7 0 83 0 84 -52 0 c-94 0 -98
11 -98 239 l0 181 70 0 70 0 0 85 0 85 -70 0 -70 0 0 115 0 115 -105 0 -105 0
0 -115z"/>
<path d="M4180 2105 l0 -115 -40 0 -40 0 0 -85 0 -85 39 0 38 0 5 -227 c6
-251 11 -279 67 -326 51 -43 147 -58 254 -41 l37 7 0 83 0 84 -53 0 c-89 0
-91 6 -95 231 l-4 189 71 0 71 0 0 85 0 85 -70 0 -70 0 0 115 0 115 -105 0
-105 0 0 -115z"/>
<path d="M4590 2125 l0 -95 110 0 110 0 0 95 0 95 -110 0 -110 0 0 -95z"/>
<path d="M1950 1981 c-91 -28 -160 -102 -192 -205 -28 -91 -31 -252 -5 -337
25 -82 73 -146 137 -183 51 -29 61 -31 155 -31 92 0 104 3 153 29 60 34 97 77
123 147 32 83 29 89 -45 89 -35 0 -77 3 -94 6 -27 5 -31 3 -36 -23 -17 -78
-70 -116 -128 -92 -40 16 -58 57 -58 129 l0 60 190 0 190 0 0 58 c0 68 -22
178 -44 220 -45 87 -143 142 -251 141 -38 0 -81 -4 -95 -8z m152 -158 c18 -16
38 -72 38 -105 0 -16 -11 -18 -90 -18 -90 0 -90 0 -90 25 0 38 25 90 51 109
27 19 63 14 91 -11z"/>
<path d="M2400 1605 l0 -385 104 0 104 0 4 218 c4 240 10 267 67 315 25 20 43
27 77 27 l44 0 0 105 0 105 -41 0 c-63 0 -106 -26 -140 -84 l-29 -51 0 68 0
67 -95 0 -95 0 0 -385z"/>
<path d="M2850 1605 l0 -385 110 0 109 0 3 279 c3 260 4 280 22 300 15 17 29
21 60 19 64 -5 66 -13 66 -325 l0 -273 106 0 105 0 -3 334 c-3 321 -4 336 -24
363 -36 48 -91 73 -162 73 -72 0 -121 -17 -157 -56 l-25 -27 0 42 0 41 -105 0
-105 0 0 -385z"/>
<path d="M3690 1975 c-83 -26 -157 -108 -173 -191 l-6 -32 87 -6 c48 -4 95
-10 105 -12 13 -4 17 1 17 18 0 35 35 85 65 92 53 13 85 -30 85 -114 0 -26 -2
-27 -86 -39 -149 -21 -229 -64 -271 -145 -21 -41 -29 -153 -14 -199 26 -78 95
-126 181 -127 73 0 121 19 167 65 l43 42 0 -53 0 -54 103 0 103 0 -7 73 c-4
39 -8 173 -8 297 -1 124 -6 242 -12 262 -13 49 -69 103 -127 122 -56 20 -190
20 -252 1z m177 -461 c-10 -101 -58 -164 -111 -145 -48 18 -58 107 -19 159 20
27 71 50 112 51 23 1 24 0 18 -65z"/>
<path d="M4600 1605 l0 -385 105 0 105 0 0 385 0 385 -105 0 -105 0 0 -385z"/>
<path d="M4870 1983 c-1 -5 45 -178 102 -385 l102 -378 88 0 c48 0 88 2 88 5
0 5 182 697 196 748 5 16 -2 18 -87 15 l-93 -3 -45 -192 c-25 -106 -48 -190
-52 -185 -4 4 -26 91 -50 195 l-43 187 -103 0 c-57 0 -103 -3 -103 -7z"/>
<path d="M5609 1971 c-92 -36 -145 -97 -164 -187 l-6 -32 88 -6 c48 -4 95 -9
104 -12 11 -3 18 7 25 38 11 52 48 82 87 72 33 -8 42 -24 51 -89 l6 -51 -86
-12 c-96 -14 -179 -42 -219 -74 -45 -35 -75 -112 -75 -191 0 -37 6 -82 14
-100 51 -119 234 -146 335 -49 l40 38 6 -48 7 -48 96 0 97 0 -3 282 c-3 346
-8 374 -68 427 -26 22 -63 43 -89 50 -68 17 -192 13 -246 -8z m185 -453 c-9
-85 -26 -123 -64 -143 -29 -15 -34 -15 -56 -1 -28 19 -39 54 -31 103 10 60 62
99 135 102 22 1 23 -1 16 -61z"/>
<path d="M799 961 c-31 -32 -82 -73 -113 -92 l-56 -34 0 -103 0 -102 38 19
c20 10 57 35 82 55 l45 35 3 -364 2 -365 115 0 115 0 0 505 0 505 -87 -1 -88
-1 -56 -57z"/>
<path d="M1323 1010 c-123 -26 -200 -113 -222 -252 -23 -144 39 -297 141 -347
32 -15 63 -21 111 -21 73 0 111 11 145 42 l22 21 0 -59 c0 -76 -24 -159 -55
-190 -47 -47 -124 -19 -146 55 l-11 37 -90 -17 c-49 -9 -92 -20 -95 -23 -13
-13 28 -114 61 -153 95 -110 302 -119 415 -17 89 80 131 221 131 439 0 327
-91 478 -296 490 -38 2 -88 0 -111 -5z m138 -170 c64 -35 73 -202 12 -250 -74
-58 -163 8 -163 120 0 104 76 169 151 130z"/>
<path d="M2360 868 c0 -149 0 -151 -19 -134 -25 23 -87 45 -126 46 -103 1
-190 -72 -226 -192 -32 -103 -33 -283 -1 -384 40 -130 103 -187 212 -188 65
-1 114 23 147 74 l23 33 0 -57 0 -56 100 0 100 0 0 505 0 505 -105 0 -105 0 0
-152z m-42 -258 c30 -28 37 -75 37 -230 -1 -108 -4 -142 -18 -167 -28 -53 -85
-58 -121 -10 -18 25 -21 45 -24 160 -4 155 2 207 29 241 25 32 66 34 97 6z"/>
<path d="M3290 515 l0 -505 105 0 105 0 0 505 0 505 -105 0 -105 0 0 -505z"/>
<path d="M4001 1010 c-137 -29 -225 -142 -224 -290 0 -157 60 -221 290 -310
118 -45 153 -92 119 -159 -18 -34 -54 -51 -107 -51 -58 0 -96 26 -126 87 -14
29 -28 53 -31 53 -4 0 -48 -12 -98 -26 l-92 -26 13 -38 c51 -144 137 -214 286
-235 60 -8 172 10 228 37 119 57 183 187 160 327 -17 111 -87 182 -231 236
-109 42 -166 72 -184 100 -33 51 11 115 78 115 55 0 94 -24 118 -70 11 -22 25
-40 30 -40 10 0 172 59 178 65 6 6 -38 98 -63 131 -39 51 -135 93 -225 99 -41
2 -95 0 -119 -5z"/>
<path d="M2848 777 c-60 -17 -119 -58 -152 -105 -105 -152 -90 -467 27 -580
71 -69 208 -95 320 -63 86 25 169 122 184 216 l5 32 -62 6 c-121 13 -125 12
-139 -33 -16 -54 -46 -80 -91 -80 -58 0 -83 35 -88 120 l-4 70 192 0 193 0 -6
93 c-9 160 -56 251 -157 302 -60 30 -157 40 -222 22z m134 -148 c24 -13 48
-67 48 -109 l0 -30 -90 0 c-81 0 -90 2 -90 19 0 97 64 156 132 120z"/>
<path d="M4480 488 c0 -167 5 -321 10 -342 20 -89 80 -131 185 -130 79 1 119
17 159 64 l26 32 0 -51 0 -51 100 0 100 0 0 390 0 390 -104 0 -104 0 -3 -273
c-4 -237 -6 -276 -21 -299 -23 -34 -71 -45 -103 -24 l-25 16 0 290 0 290 -110
0 -110 0 0 -302z"/>
<path d="M5140 400 l0 -390 109 0 110 0 3 228 c3 206 5 230 23 261 29 49 66
73 114 75 l42 1 -3 105 c-3 101 -4 105 -26 108 -59 9 -130 -40 -163 -113 l-19
-40 0 78 0 77 -95 0 -95 0 0 -390z"/>
<path d="M5524 251 c-45 -27 -64 -59 -64 -107 0 -121 147 -175 224 -83 49 58
28 162 -40 194 -43 20 -83 19 -120 -4z m106 -26 c96 -50 43 -198 -63 -178 -35
7 -77 57 -77 92 0 46 51 98 98 100 7 1 26 -6 42 -14z"/>
</g>
</svg>
